# xmcd CD database file
#
# Track frame offsets:
#	150
#	21001
#	36535
#	54958
#	70503
#
# Disc length: 1141 seconds
#
# Revision: 0
# Processed by: cddbd v1.5.2PL0 Copyright (c) Steve Scherf et al.
# Submitted via: CDex 2.23
#
DISCID=38047305
DTITLE=Veronica Lewis - Boogie Woogie Country Girl
DYEAR=2019
DGENRE=Blues
TTITLE0=Put Your Wig On Mama
TTITLE1=Boogie Woogie Country Girl
TTITLE2=Memphis Train
TTITLE3=Fool Me Twice
TTITLE4=Whoo Wee Sweet Daddy
EXTD=YEAR: 2019
EXTT0=
EXTT1=
EXTT2=
EXTT3=
EXTT4=
PLAYORDER=
